Coordinates
version=1
nRows=24
nColumns=38
inDegrees=no

Units are S.I. units (second, meters, Newtons, ...)
If the header above contains a line with 'inDegrees', this indicates whether rotational values are in degrees (yes) or radians (no).

endheader
time	pelvis_tilt	pelvis_list	pelvis_rotation	pelvis_tx	pelvis_ty	pelvis_tz	hip_flexion_r	hip_adduction_r	hip_rotation_r	knee_angle_r	ankle_angle_r	subtalar_angle_r	mtp_angle_r	hip_flexion_l	hip_adduction_l	hip_rotation_l	knee_angle_l	ankle_angle_l	subtalar_angle_l	mtp_angle_l	lumbar_extension	lumbar_bending	lumbar_rotation	arm_flex_r	arm_add_r	arm_rot_r	elbow_flex_r	pro_sup_r	wrist_flex_r	wrist_dev_r	arm_flex_l	arm_add_l	arm_rot_l	elbow_flex_l	pro_sup_l	wrist_flex_l	wrist_dev_l
10	3.0168	1.45678	-1.57334	0.729222	1.72707	0.989046	-0.0800905	0.0147483	-0.166064	0.236512	0.118037	0	0	-0.210055	0.0187651	-0.337292	0	-0.026167	0	0	-0.0364947	0.130105	0.0995307	0.543218	-0.350123	0.548023	1.21436	1.5708	0	0	0.455152	-0.153269	0.0024747	1.09383	0.703034	0	0
10.01	3.02042	1.45654	-1.57721	0.730261	1.7264	0.9891	-0.0798079	0.0155246	-0.165918	0.236254	0.117436	0	0	-0.209557	0.0180427	-0.337929	0	-0.0270836	0	0	-0.0366149	0.130719	0.100451	0.545462	-0.348761	0.549274	1.20933	1.5708	0	0	0.455888	-0.152666	0.00251763	1.09097	0.702362	0	0
10.02	3.02349	1.45622	-1.58052	0.731278	1.72576	0.989149	-0.0795444	0.0163304	-0.165898	0.236259	0.11696	0	0	-0.209137	0.0172708	-0.338525	0	-0.0279462	0	0	-0.0367669	0.131363	0.101809	0.546943	-0.347774	0.549811	1.20436	1.5708	0	0	0.456647	-0.151896	0.00252765	1.08848	0.701591	0	0
10.03	3.02521	1.45565	-1.58243	0.732318	1.72517	0.989199	-0.0791988	0.0172075	-0.166545	0.237203	0.116906	0	0	-0.209064	0.0162667	-0.338924	0	-0.0286474	0	0	-0.0371766	0.132054	0.103329	0.547941	-0.347193	0.551093	1.19946	1.5708	0	0	0.457592	-0.151084	0.0025743	1.08607	0.700684	0	0
10.04	3.02729	1.45486	-1.58462	0.733364	1.72462	0.989258	-0.0793373	0.0180915	-0.166915	0.237711	0.11669	0	0	-0.209301	0.0152282	-0.339176	0	-0.0293556	0	0	-0.0377226	0.132553	0.104804	0.548491	-0.347436	0.554584	1.1951	1.5708	0	0	0.458989	-0.150256	0.00288158	1.08318	0.699736	0	0
10.05	3.03021	1.45394	-1.58774	0.734376	1.72412	0.989322	-0.0799599	0.0188899	-0.166696	0.237533	0.116198	0	0	-0.209707	0.0143848	-0.339642	0	-0.0300142	0	0	-0.0383604	0.132884	0.106435	0.548476	-0.347834	0.556594	1.19167	1.5708	0	0	0.46087	-0.149322	0.00389747	1.07981	0.698759	0	0
10.06	3.03328	1.45285	-1.591	0.735345	1.72362	0.989395	-0.0809263	0.0196317	-0.166229	0.237048	0.115643	0	0	-0.210336	0.0136301	-0.340053	0	-0.0306204	0	0	-0.0391626	0.133138	0.108189	0.548391	-0.348466	0.557324	1.18893	1.5708	0	0	0.463095	-0.148218	0.00539839	1.07627	0.697814	0	0
10.07	3.03623	1.4516	-1.59413	0.7363	1.72311	0.989474	-0.082012	0.0203969	-0.165732	0.236641	0.115169	0	0	-0.211159	0.0128993	-0.340204	0	-0.0314008	0	0	-0.0401742	0.133293	0.110071	0.548266	-0.349005	0.55664	1.18674	1.5708	0	0	0.465468	-0.146857	0.00695652	1.07247	0.696862	0	0
10.08	3.03801	1.45026	-1.59618	0.737285	1.72265	0.989554	-0.0831799	0.0213746	-0.165198	0.236309	0.114578	0	0	-0.212081	0.012024	-0.340769	0	-0.032171	0	0	-0.0412374	0.13351	0.111969	0.547859	-0.349085	0.555101	1.18529	1.5708	0	0	0.467611	-0.145546	0.00853219	1.06871	0.696109	0	0
10.09	3.0398	1.44902	-1.5978	0.738247	1.7222	0.989648	-0.0842647	0.0223231	-0.165293	0.236068	0.11388	0	0	-0.212899	0.0110664	-0.341449	0	-0.0327962	0	0	-0.0419799	0.133752	0.113252	0.547286	-0.348522	0.552238	1.18437	1.5708	0	0	0.469252	-0.144503	0.0100166	1.06543	0.695711	0	0
10.1	3.04203	1.44784	-1.59974	0.739175	1.72174	0.989739	-0.0852833	0.023186	-0.165502	0.235834	0.11334	0	0	-0.213658	0.0101541	-0.341836	0	-0.0333735	0	0	-0.0426705	0.134034	0.114011	0.547093	-0.347299	0.548486	1.18357	1.5708	0	0	0.470272	-0.143853	0.0115176	1.06303	0.695661	0	0
10.11	3.04472	1.44709	-1.60219	0.740034	1.72128	0.989797	-0.0855875	0.0238757	-0.165982	0.236088	0.113141	0	0	-0.213867	0.00944295	-0.342337	0	-0.0339452	0	0	-0.0427853	0.134362	0.114715	0.54728	-0.346125	0.544573	1.18288	1.5708	0	0	0.470826	-0.143184	0.0126485	1.06114	0.696173	0	0
10.12	3.04754	1.4465	-1.60465	0.740828	1.72077	0.989837	-0.0854737	0.0244321	-0.166513	0.236713	0.113006	0	0	-0.213848	0.00876261	-0.342428	0	-0.0344891	0	0	-0.0427223	0.134728	0.115097	0.547909	-0.345127	0.542146	1.18199	1.5708	0	0	0.470871	-0.142678	0.0134856	1.05989	0.696855	0	0
10.13	3.04992	1.44605	-1.60659	0.741597	1.72026	0.989861	-0.0850599	0.0250158	-0.166976	0.237507	0.112831	0	0	-0.213646	0.00800549	-0.342136	0	-0.0350521	0	0	-0.0424836	0.135167	0.115369	0.548537	-0.344128	0.539575	1.18066	1.5708	0	0	0.470401	-0.142192	0.0143156	1.05907	0.697594	0	0
10.14	3.05119	1.44562	-1.60726	0.742456	1.71973	0.989913	-0.0847156	0.0259249	-0.167466	0.238143	0.112281	0	0	-0.213456	0.00695099	-0.341892	0	-0.0356678	0	0	-0.042045	0.135445	0.11552	0.548704	-0.342819	0.536146	1.17875	1.5708	0	0	0.469433	-0.142017	0.0156471	1.05901	0.698447	0	0
10.15	3.04631	1.44381	-1.60253	0.743004	1.71946	0.989946	-0.0852267	0.0271855	-0.167827	0.239803	0.112207	0	0	-0.214757	0.00548958	-0.342733	0	-0.0358207	0	0	-0.0455916	0.135444	0.125231	0.543823	-0.342989	0.517794	1.1799	1.5708	0	0	0.474924	-0.136671	0.0250757	1.05621	0.698562	0	0
10.16	3.05505	1.44426	-1.61029	0.744091	1.71862	0.990063	-0.0835623	0.0271531	-0.168562	0.241238	0.11172	0	0	-0.213479	0.00525577	-0.342051	0	-0.0370636	0	0	-0.0419957	0.135809	0.115823	0.549524	-0.341551	0.531601	1.17507	1.5708	0	0	0.466922	-0.140703	0.0162118	1.06109	0.698342	0	0
10.17	3.05753	1.44337	-1.61242	0.744877	1.71807	0.990157	-0.0831373	0.0276189	-0.168773	0.242772	0.111332	0	0	-0.213656	0.00456302	-0.342331	0	-0.0378296	0	0	-0.0422167	0.135873	0.11612	0.549971	-0.341514	0.530204	1.17319	1.5708	0	0	0.465995	-0.139476	0.0164454	1.06169	0.699233	0	0
10.18	3.06108	1.44267	-1.61571	0.745625	1.71747	0.990225	-0.0824266	0.0279177	-0.169143	0.244507	0.111188	0	0	-0.213629	0.0040508	-0.342578	0	-0.0384387	0	0	-0.0422417	0.135833	0.116477	0.550565	-0.341638	0.53068	1.17097	1.5708	0	0	0.465151	-0.137847	0.0157447	1.06168	0.70062	0	0
10.19	3.06529	1.44214	-1.61965	0.746338	1.71686	0.990263	-0.0814249	0.0280963	-0.169596	0.246393	0.1113	0	0	-0.213361	0.00365124	-0.342676	0	-0.0387582	0	0	-0.0421327	0.135796	0.116923	0.551566	-0.342113	0.532577	1.16855	1.5708	0	0	0.464199	-0.135963	0.0142313	1.06124	0.702365	0	0
10.2	3.07028	1.44164	-1.62417	0.74702	1.71624	0.990296	-0.0805105	0.0282094	-0.1698	0.247929	0.111325	0	0	-0.213043	0.00330351	-0.342476	0	-0.0389122	0	0	-0.0420143	0.135708	0.117367	0.552827	-0.342769	0.534956	1.16617	1.5708	0	0	0.463026	-0.133902	0.0116441	1.061	0.7042	0	0
10.21	3.07599	1.44106	-1.6294	0.747686	1.71557	0.990329	-0.0795733	0.0281807	-0.17009	0.249593	0.111395	0	0	-0.212743	0.00309091	-0.342363	0	-0.039334	0	0	-0.0420691	0.13554	0.11791	0.55418	-0.343368	0.53701	1.16424	1.5708	0	0	0.461773	-0.131839	0.00839489	1.0611	0.705919	0	0
10.22	3.08241	1.44031	-1.63533	0.748348	1.71488	0.990354	-0.078497	0.0279616	-0.170971	0.251868	0.111716	0	0	-0.212545	0.00301468	-0.34237	0	-0.0398166	0	0	-0.0424083	0.135251	0.118559	0.555616	-0.343978	0.539407	1.16296	1.5708	0	0	0.460633	-0.129858	0.00515464	1.06144	0.707462	0	0
10.23	3.08867	1.43943	-1.64117	0.748996	1.71416	0.990373	-0.0776648	0.0277585	-0.17174	0.253918	0.111994	0	0	-0.212488	0.00298031	-0.342383	0	-0.0403269	0	0	-0.0430488	0.134985	0.119503	0.556985	-0.344654	0.541256	1.16202	1.5708	0	0	0.459928	-0.128021	0.00249507	1.06145	0.708695	0	0
